# Blender v2.79 (sub 0) OBJ File: 'pong_hau_ki.blend'
# www.blender.org
o Peão_4
v -0.140000 0.315000 0.140000
v -0.140000 0.595000 0.140000
v -0.140000 0.315000 -0.140000
v -0.140000 0.595000 -0.140000
v 0.140000 0.315000 0.140000
v 0.140000 0.595000 0.140000
v 0.140000 0.315000 -0.140000
v 0.140000 0.595000 -0.140000
v -0.087500 0.035000 0.087500
v -0.070000 0.315000 0.070000
v -0.087500 0.035000 -0.087500
v -0.070000 0.315000 -0.070000
v 0.087500 0.035000 0.087500
v 0.070000 0.315000 0.070000
v 0.087500 0.035000 -0.087500
v 0.070000 0.315000 -0.070000
v 0.014000 0.000000 -0.014000
v 0.014000 0.175000 -0.014000
v 0.014000 0.000000 -0.189000
v 0.014000 0.175000 -0.154000
v 0.189000 0.000000 -0.014000
v 0.154000 0.175000 -0.014000
v 0.189000 0.000000 -0.189000
v 0.154000 0.175000 -0.154000
v -0.014000 0.000000 -0.014000
v -0.014000 0.175000 -0.014000
v -0.189000 0.000000 -0.014000
v -0.154000 0.175000 -0.014000
v -0.014000 0.000000 -0.189000
v -0.014000 0.175000 -0.154000
v -0.189000 0.000000 -0.189000
v -0.154000 0.175000 -0.154000
v -0.014000 0.000000 0.014000
v -0.014000 0.175000 0.014000
v -0.014000 0.000000 0.189000
v -0.014000 0.175000 0.154000
v -0.189000 0.000000 0.014000
v -0.154000 0.175000 0.014000
v -0.189000 0.000000 0.189000
v -0.154000 0.175000 0.154000
v 0.014000 0.000000 0.014000
v 0.014000 0.175000 0.014000
v 0.189000 0.000000 0.014000
v 0.154000 0.175000 0.014000
v 0.014000 0.000000 0.189000
v 0.014000 0.175000 0.154000
v 0.189000 0.000000 0.189000
v 0.154000 0.175000 0.154000
vt 0.511748 0.713802
vt 0.469690 0.755860
vt 0.469690 0.713802
vt 0.874822 0.901543
vt 0.097920 0.124640
vt 0.874822 0.124641
vt 0.511748 0.713802
vt 0.469690 0.755860
vt 0.469690 0.713802
vt 0.809365 0.903211
vt 0.159637 0.126934
vt 0.809365 0.126934
vt 0.511748 0.713802
vt 0.469690 0.755860
vt 0.469690 0.713802
vt 0.511748 0.713802
vt 0.469690 0.755860
vt 0.469690 0.713802
vt 0.511748 0.713802
vt 0.469690 0.755860
vt 0.469690 0.713802
vt 0.511748 0.713802
vt 0.469690 0.755860
vt 0.469690 0.713802
vt 0.511748 0.713802
vt 0.469690 0.755860
vt 0.469690 0.713802
vt 0.511748 0.713802
vt 0.469690 0.755860
vt 0.469690 0.713802
vt 0.511748 0.713802
vt 0.469690 0.755860
vt 0.469690 0.713802
vt 0.469690 0.713802
vt 0.511748 0.755860
vt 0.469690 0.755860
vt 0.469690 0.713802
vt 0.511748 0.755860
vt 0.469690 0.755860
vt 0.511748 0.713802
vt 0.469690 0.755860
vt 0.469690 0.713802
vt 0.511748 0.713802
vt 0.469690 0.755860
vt 0.469690 0.713802
vt 0.511748 0.713802
vt 0.511748 0.713802
vt 0.469690 0.755860
vt 0.469690 0.713802
vt 0.469690 0.713802
vt 0.511748 0.755860
vt 0.469690 0.755860
vt 0.469690 0.713802
vt 0.511748 0.755860
vt 0.469690 0.755860
vt 0.511748 0.713802
vt 0.469690 0.755860
vt 0.469690 0.713802
vt 0.511748 0.713802
vt 0.469690 0.755860
vt 0.469690 0.713802
vt 0.511748 0.713802
vt 0.511748 0.713802
vt 0.469690 0.755860
vt 0.469690 0.713802
vt 0.469690 0.713802
vt 0.511748 0.755860
vt 0.469690 0.755860
vt 0.469690 0.713802
vt 0.511748 0.755860
vt 0.469690 0.755860
vt 0.511748 0.713802
vt 0.469690 0.755860
vt 0.469690 0.713802
vt 0.511748 0.713802
vt 0.469690 0.755860
vt 0.469690 0.713802
vt 0.511748 0.755860
vt 0.511748 0.713802
vt 0.469690 0.755860
vt 0.469690 0.713802
vt 0.469690 0.713802
vt 0.511748 0.755860
vt 0.469690 0.755860
vt 0.469690 0.713802
vt 0.511748 0.755860
vt 0.469690 0.755860
vt 0.511748 0.713802
vt 0.469690 0.755860
vt 0.469690 0.713802
vt 0.511748 0.713802
vt 0.469690 0.755860
vt 0.469690 0.713802
vt 0.511748 0.755860
vt 0.511748 0.713802
vt 0.469690 0.755860
vt 0.469690 0.713802
vt 0.511748 0.755860
vt 0.097920 0.901543
vt 0.511748 0.755860
vt 0.159637 0.903211
vt 0.511748 0.755860
vt 0.511748 0.755860
vt 0.511748 0.755860
vt 0.511748 0.755860
vt 0.511748 0.755860
vt 0.511748 0.755860
vt 0.511748 0.755860
vt 0.511748 0.713802
vt 0.511748 0.755860
vt 0.511748 0.755860
vt 0.511748 0.755860
vt 0.511748 0.713802
vt 0.511748 0.755860
vt 0.511748 0.755860
vt 0.511748 0.755860
vt 0.511748 0.713802
vt 0.511748 0.755860
vt 0.511748 0.755860
vt 0.511748 0.713802
vt 0.511748 0.713802
vt 0.511748 0.755860
vt 0.511748 0.755860
vt 0.511748 0.713802
vn -1.0000 0.0000 0.0000
vn 0.0000 0.0000 -1.0000
vn 1.0000 0.0000 0.0000
vn 0.0000 0.0000 1.0000
vn 0.0000 -1.0000 0.0000
vn 0.0000 1.0000 0.0000
vn -0.9981 0.0624 0.0000
vn 0.0000 0.0624 -0.9981
vn 0.9981 0.0624 0.0000
vn 0.0000 0.0624 0.9981
vn 0.0000 0.1961 -0.9806
vn 0.9806 0.1961 0.0000
vn -0.9806 0.1961 0.0000
vn 0.0000 0.1961 0.9806
s off
f 2/1/1 3/2/1 1/3/1
f 4/4/2 7/5/2 3/6/2
f 8/7/3 5/8/3 7/9/3
f 6/10/4 1/11/4 5/12/4
f 7/13/5 1/14/5 3/15/5
f 4/16/6 6/17/6 8/18/6
f 10/19/7 11/20/7 9/21/7
f 12/22/8 15/23/8 11/24/8
f 16/25/9 13/26/9 15/27/9
f 14/28/10 9/29/10 13/30/10
f 15/31/5 9/29/5 11/24/5
f 12/22/6 14/32/6 16/33/6
f 17/34/1 20/35/1 19/36/1
f 19/37/11 24/38/11 23/39/11
f 24/40/12 21/41/12 23/42/12
f 22/43/4 17/44/4 21/45/4
f 23/46/5 17/44/5 19/37/5
f 20/47/6 22/48/6 24/49/6
f 25/50/4 28/51/4 27/52/4
f 27/53/13 32/54/13 31/55/13
f 32/56/11 29/57/11 31/58/11
f 30/59/3 25/60/3 29/61/3
f 31/62/5 25/60/5 27/53/5
f 28/63/6 30/64/6 32/65/6
f 33/66/3 36/67/3 35/68/3
f 35/69/14 40/70/14 39/71/14
f 40/72/13 37/73/13 39/74/13
f 38/75/2 33/76/2 37/77/2
f 35/69/5 37/78/5 33/76/5
f 36/79/6 38/80/6 40/81/6
f 41/82/2 44/83/2 43/84/2
f 43/85/12 48/86/12 47/87/12
f 48/88/14 45/89/14 47/90/14
f 46/91/1 41/92/1 45/93/1
f 43/85/5 45/94/5 41/92/5
f 44/95/6 46/96/6 48/97/6
f 2/1/1 4/98/1 3/2/1
f 4/4/2 8/99/2 7/5/2
f 8/7/3 6/100/3 5/8/3
f 6/10/4 2/101/4 1/11/4
f 7/13/5 5/102/5 1/14/5
f 4/16/6 2/103/6 6/17/6
f 10/19/7 12/104/7 11/20/7
f 12/22/8 16/105/8 15/23/8
f 16/25/9 14/106/9 13/26/9
f 14/28/10 10/107/10 9/29/10
f 15/31/5 13/108/5 9/29/5
f 12/22/6 10/107/6 14/32/6
f 17/34/1 18/109/1 20/35/1
f 19/37/11 20/47/11 24/38/11
f 24/40/12 22/110/12 21/41/12
f 22/43/4 18/111/4 17/44/4
f 23/46/5 21/112/5 17/44/5
f 20/47/6 18/111/6 22/48/6
f 25/50/4 26/113/4 28/51/4
f 27/53/13 28/63/13 32/54/13
f 32/56/11 30/114/11 29/57/11
f 30/59/3 26/115/3 25/60/3
f 31/62/5 29/116/5 25/60/5
f 28/63/6 26/115/6 30/64/6
f 33/66/3 34/117/3 36/67/3
f 35/69/14 36/79/14 40/70/14
f 40/72/13 38/118/13 37/73/13
f 38/75/2 34/119/2 33/76/2
f 35/69/5 39/120/5 37/78/5
f 36/79/6 34/119/6 38/80/6
f 41/82/2 42/121/2 44/83/2
f 43/85/12 44/95/12 48/86/12
f 48/88/14 46/122/14 45/89/14
f 46/91/1 42/123/1 41/92/1
f 43/85/5 47/124/5 45/94/5
f 44/95/6 42/123/6 46/96/6
